<svg width="30" height="24" viewBox="0 0 30 24" fill="none" xmlns="http://www.w3.org/2000/svg">
<path d="M29.9522 15.5118C29.921 15.4343 29.8747 15.3656 29.816 15.3081L22.3173 7.8094C22.0735 7.56566 21.6773 7.56566 21.4335 7.8094C21.1898 8.05315 21.1898 8.44942 21.4335 8.69316L27.8659 15.1256H15.6249C7.69868 15.1256 1.25003 8.67687 1.25003 0.750745C1.25003 0.405749 0.97001 0.125732 0.625013 0.125732C0.280017 0.125732 0 0.40569 0 0.750687C0 9.36687 7.00868 16.3755 15.6249 16.3755H27.866L21.4336 22.808C21.1898 23.0517 21.1898 23.448 21.4336 23.6917C21.5561 23.8142 21.716 23.8742 21.8761 23.8742C22.0361 23.8742 22.196 23.813 22.3186 23.6917L29.8172 16.193C29.8747 16.1355 29.9197 16.0655 29.9522 15.9893C30.0159 15.8368 30.0159 15.6643 29.9522 15.5118Z" fill="white"/>
</svg>
