<svg width="15" height="15" viewBox="0 0 15 15" fill="none" xmlns="http://www.w3.org/2000/svg">
<g clip-path="url(#clip0_2820_275)">
<path d="M0.173077 8.07687C0.0576923 7.96149 0 7.78841 0 7.67303C0 7.55764 0.0576923 7.38456 0.173077 7.26918L0.980769 6.46149C1.21154 6.23072 1.55769 6.23072 1.78846 6.46149L1.84615 6.51918L5.01923 9.92303C5.13461 10.0384 5.30769 10.0384 5.42307 9.92303L13.1538 1.90379H13.2115C13.4423 1.67302 13.7885 1.67302 14.0192 1.90379L14.8269 2.71148C15.0577 2.94225 15.0577 3.28841 14.8269 3.51918L5.59615 13.0961C5.48077 13.2115 5.36538 13.2692 5.1923 13.2692C5.01923 13.2692 4.90384 13.2115 4.78846 13.0961L0.288461 8.24995L0.173077 8.07687Z" fill="#1FDB6A"/>
</g>
<defs>
<clipPath id="clip0_2820_275">
<rect width="15" height="15" fill="white"/>
</clipPath>
</defs>
</svg>
