<svg width="18" height="18" viewBox="0 0 18 18" fill="none" xmlns="http://www.w3.org/2000/svg">
<path d="M15.7476 3.64321C15.7464 3.53507 15.7046 3.42911 15.6251 3.34958L12.399 0.123434C12.3989 0.123293 12.3988 0.123258 12.3986 0.123152C12.3224 0.0470391 12.2172 0 12.101 0H3.13868C2.64941 0 2.2514 0.397969 2.2514 0.887238V17.1127C2.2514 17.602 2.64937 18 3.13864 18H14.8613C15.3505 18 15.7485 17.602 15.7485 17.1127V3.64757C15.7486 3.64602 15.7478 3.64472 15.7476 3.64321ZM12.5224 1.43898L14.3096 3.22611H12.5668C12.5424 3.22611 12.5224 3.20618 12.5224 3.18175V1.43898ZM14.9056 17.1128C14.9056 17.1372 14.8857 17.1571 14.8613 17.1571H3.13868C3.11424 17.1571 3.09434 17.1372 3.09434 17.1128V0.887238C3.09434 0.862805 3.11424 0.842906 3.13868 0.842906H11.6795V3.18175C11.6795 3.67098 12.0776 4.06905 12.5668 4.06905H14.9057V17.1128H14.9056Z" fill="#252061"/>
<path d="M12.7296 5.76611H5.27033C5.0376 5.76611 4.84888 5.9548 4.84888 6.18757C4.84888 6.4203 5.0376 6.60902 5.27033 6.60902H12.7296C12.9623 6.60902 13.1511 6.4203 13.1511 6.18757C13.1511 5.9548 12.9623 5.76611 12.7296 5.76611Z" fill="#252061"/>
<path d="M12.7296 8.30908H5.27033C5.0376 8.30908 4.84888 8.4978 4.84888 8.73054C4.84888 8.96327 5.0376 9.15199 5.27033 9.15199H12.7296C12.9623 9.15199 13.1511 8.96327 13.1511 8.73054C13.1511 8.4978 12.9623 8.30908 12.7296 8.30908Z" fill="#252061"/>
<path d="M12.7296 10.8525H5.27033C5.0376 10.8525 4.84888 11.0413 4.84888 11.274C4.84888 11.5068 5.0376 11.6954 5.27033 11.6954H12.7296C12.9623 11.6954 13.1511 11.5068 13.1511 11.274C13.1511 11.0413 12.9623 10.8525 12.7296 10.8525Z" fill="#252061"/>
<path d="M8.99999 13.3955H5.27033C5.0376 13.3955 4.84888 13.5842 4.84888 13.817C4.84888 14.0497 5.0376 14.2384 5.27033 14.2384H8.99999C9.23272 14.2384 9.42144 14.0497 9.42144 13.817C9.42144 13.5842 9.23272 13.3955 8.99999 13.3955Z" fill="#252061"/>
</svg>
