<svg width="22" height="22" viewBox="0 0 22 22" fill="none" xmlns="http://www.w3.org/2000/svg">
<g clip-path="url(#clip0_1_22)">
<path d="M21.766 8.94025L11.3377 1.30483C11.1366 1.15762 10.8634 1.15762 10.6624 1.30483L0.233967 8.94025C-0.0207519 9.12678 -0.0760956 9.48445 0.110431 9.73917C0.296959 9.99389 0.654673 10.0491 0.909348 9.8627L11 2.47448L21.0906 9.86266C21.1924 9.93721 21.3106 9.97309 21.4278 9.97309C21.6038 9.97309 21.7775 9.89209 21.8895 9.73913C22.0761 9.48445 22.0207 9.12678 21.766 8.94025Z" fill="#524B9A"/>
<path d="M19.0028 9.99208C18.6871 9.99208 18.4312 10.248 18.4312 10.5637V19.6623H13.8583V14.6957C13.8583 13.1196 12.5761 11.8374 11 11.8374C9.42404 11.8374 8.14177 13.1197 8.14177 14.6957V19.6623H3.5689V10.5637C3.5689 10.248 3.31294 9.99212 2.99729 9.99212C2.68164 9.99212 2.42567 10.248 2.42567 10.5637V20.234C2.42567 20.5497 2.68164 20.8056 2.99729 20.8056H8.71338C9.01399 20.8056 9.25998 20.5734 9.28276 20.2785C9.28413 20.2651 9.28499 20.2505 9.28499 20.234V14.6957C9.28499 13.75 10.0543 12.9807 11 12.9807C11.9457 12.9807 12.7151 13.7501 12.7151 14.6957V20.234C12.7151 20.2504 12.716 20.2648 12.7173 20.278C12.7399 20.573 12.9859 20.8056 13.2867 20.8056H19.0028C19.3185 20.8056 19.5744 20.5497 19.5744 20.234V10.5637C19.5744 10.248 19.3185 9.99208 19.0028 9.99208Z" fill="#524B9A"/>
</g>
<defs>
<clipPath id="clip0_1_22">
<rect width="22" height="22" fill="white"/>
</clipPath>
</defs>
</svg>
