<svg width="20" height="20" viewBox="0 0 20 20" fill="none" xmlns="http://www.w3.org/2000/svg">
<path d="M8.86655 6.5266C8.90312 6.59972 8.93968 6.67285 8.97624 6.7277C9.01281 6.78254 9.06765 6.83738 9.10421 6.89223C9.15906 6.94707 9.2139 7.00192 9.28703 7.05676C9.34188 7.09333 9.415 7.14817 9.50641 7.16645C9.57954 7.20302 9.65266 7.2213 9.74407 7.23958C9.83548 7.25786 9.9086 7.25786 9.98173 7.25786C10.0549 7.25786 10.1463 7.25786 10.2194 7.23958C10.2925 7.2213 10.3656 7.20302 10.4205 7.16645H10.4388C10.5119 7.12989 10.585 7.09333 10.6582 7.03848C10.713 7.00192 10.7678 6.94707 10.8227 6.89223L10.841 6.87395C10.8958 6.8191 10.9324 6.76426 10.9689 6.70941C11.0055 6.65457 11.0421 6.59972 11.0603 6.5266C11.0603 6.50832 11.0603 6.50832 11.0786 6.49004C11.1152 6.41691 11.1335 6.3255 11.1518 6.25238C11.17 6.17925 11.17 6.08784 11.17 6.01472C11.17 5.94159 11.17 5.85018 11.1518 5.77706C11.1335 5.70393 11.1152 5.6308 11.0786 5.5394C11.0238 5.41142 10.9507 5.30174 10.8592 5.21033C10.841 5.19205 10.841 5.19205 10.8227 5.17377C10.7678 5.11892 10.713 5.08236 10.6399 5.02751C10.5667 4.99095 10.5119 4.95439 10.4388 4.91782C10.3656 4.88126 10.2925 4.86298 10.2194 4.8447C10.128 4.82642 10.0549 4.82642 9.98173 4.82642C9.9086 4.82642 9.8172 4.82642 9.74407 4.8447C9.67094 4.86298 9.59782 4.88126 9.52469 4.91782H9.50641C9.43328 4.95439 9.36016 4.99095 9.30531 5.02751C9.23219 5.08236 9.17734 5.11892 9.1225 5.17377C9.06765 5.22861 9.01281 5.28345 8.97624 5.3383C8.93968 5.39314 8.90312 5.46627 8.86655 5.5394C8.82999 5.61252 8.81171 5.68565 8.79343 5.75877C8.77515 5.85018 8.77515 5.92331 8.77515 5.99643C8.77515 6.06956 8.77515 6.16097 8.79343 6.23409C8.81171 6.38035 8.84827 6.45347 8.86655 6.5266Z" fill="white"/>
<path d="M11.4077 13.2175H10.9872V8.7385C10.9872 8.48256 10.7861 8.26318 10.5119 8.26318H8.59232C8.33638 8.26318 8.117 8.46428 8.117 8.7385V9.72571C8.117 9.98165 8.3181 10.201 8.59232 10.201H8.97623V13.2358H8.59232C8.33638 13.2358 8.117 13.4369 8.117 13.7111V14.6983C8.117 14.9542 8.3181 15.1736 8.59232 15.1736H11.4077C11.6636 15.1736 11.883 14.9725 11.883 14.6983V13.7111C11.883 13.4369 11.6636 13.2175 11.4077 13.2175Z" fill="white"/>
<path d="M10 0C4.47898 0 0 4.47898 0 10C0 15.521 4.47898 20 10 20C15.521 20 20 15.521 20 10C20 4.47898 15.521 0 10 0ZM10 18.6837C5.21024 18.6837 1.31627 14.7898 1.31627 10C1.31627 5.21024 5.21024 1.31627 10 1.31627C14.7898 1.31627 18.6837 5.21024 18.6837 10C18.6837 14.7898 14.7898 18.6837 10 18.6837Z" fill="white"/>
</svg>
