<svg width="54" height="49" viewBox="0 0 54 49" fill="none" xmlns="http://www.w3.org/2000/svg">
<path d="M27 0C21.6599 0 16.4397 1.4369 11.9996 4.12899C7.55949 6.82109 4.09883 10.6475 2.05526 15.1243C0.0116993 19.601 -0.522991 24.5272 0.518809 29.2797C1.56061 34.0322 4.13211 38.3977 7.90813 41.8241C11.6841 45.2505 16.4951 47.5839 21.7326 48.5292C26.9701 49.4746 32.3988 48.9894 37.3325 47.135C42.2661 45.2807 46.4829 42.1405 49.4497 38.1115C52.4165 34.0825 54 29.3456 54 24.5C53.9918 18.0045 51.1446 11.7771 46.0829 7.18407C41.0211 2.59103 34.1583 0.00741076 27 0ZM45.4526 11.7096L39.3922 21.1288L28.1479 3.4496C31.5204 3.60287 34.8157 4.42124 37.8042 5.84774C40.7927 7.27425 43.4027 9.27462 45.4526 11.7096ZM21.9765 32.48L16.8388 24.4804L21.9209 16.52H32.1038L37.2168 24.5504L32.1038 32.48H21.9765ZM23.8803 3.6092L29.8975 13.0788H7.4983C9.31446 10.5209 11.7194 8.35002 14.5477 6.71538C17.3761 5.08075 20.561 4.02109 23.8834 3.6092H23.8803ZM5.5111 16.4892H17.5454L6.32572 34.1012C4.63473 31.1266 3.75435 27.8274 3.75841 24.4804C3.77214 21.7493 4.36728 19.0463 5.5111 16.52V16.4892ZM8.63075 37.3604L14.6572 27.8992L19.0203 34.72C19.1054 34.9712 19.2532 35.2012 19.4524 35.392L25.9879 45.57C22.6135 45.4333 19.3126 44.6307 16.3149 43.2182C13.3173 41.8057 10.695 39.8172 8.63075 37.3912V37.3604ZM30.2307 45.3516L24.1611 35.9212H46.511C44.6985 38.4572 42.3086 40.6116 39.5021 42.2397C36.6956 43.8677 33.5374 44.9317 30.24 45.36L30.2307 45.3516ZM48.4797 32.4716H36.4454L47.6959 14.9716C49.1996 17.6679 50.0467 20.626 50.1798 23.6454C50.3129 26.6649 49.7288 29.675 48.4673 32.4716H48.4797Z" fill="white"/>
</svg>
